<?xml version="1.0" standalone="no"?>
<!DOCTYPE svg PUBLIC "-//W3C//DTD SVG 20010904//EN"
 "http://www.w3.org/TR/2001/REC-SVG-20010904/DTD/svg10.dtd">
<svg version="1.0" xmlns="http://www.w3.org/2000/svg"
 width="241.000000pt" height="205.000000pt" viewBox="0 0 241.000000 205.000000"
 preserveAspectRatio="xMidYMid meet">
<metadata>
Created by potrace 1.16, written by Peter Selinger 2001-2019
</metadata>
<g transform="translate(0.000000,205.000000) scale(0.100000,-0.100000)"
fill="#000000" stroke="none">
<path d="M1098 1795 c-52 -19 -123 -69 -152 -108 -48 -63 -66 -116 -66 -202 0
-98 26 -162 94 -230 25 -25 46 -47 46 -49 0 -3 -13 -7 -29 -11 -17 -3 -60 -26
-98 -50 l-68 -44 -30 20 c-16 11 -49 30 -72 41 l-41 21 38 46 c83 101 84 225
1 330 -45 57 -112 86 -196 86 -82 -1 -134 -23 -185 -81 -46 -52 -63 -99 -63
-169 0 -71 18 -119 66 -172 l35 -39 -63 -33 c-134 -69 -234 -232 -235 -378 l0
-43 269 0 269 0 4 -88 c3 -78 7 -95 33 -138 19 -30 49 -60 79 -79 l49 -30 405
-3 c394 -3 405 -2 448 19 66 31 121 99 135 166 6 31 8 78 5 105 l-7 48 276 0
275 0 0 43 c-1 151 -100 308 -244 383 l-54 28 34 39 c121 133 72 345 -93 407
-30 11 -71 20 -93 20 -110 0 -222 -87 -245 -189 -19 -89 -1 -164 56 -233 35
-41 37 -47 21 -52 -10 -4 -44 -22 -76 -41 l-57 -34 -44 30 c-24 16 -69 41
-100 55 l-57 26 26 18 c37 23 85 91 107 150 64 169 -38 366 -217 418 -54 16
-139 14 -186 -3z m197 -79 c61 -28 116 -87 140 -150 34 -88 4 -200 -71 -266
-52 -45 -93 -60 -166 -60 -147 0 -248 100 -248 245 0 76 14 117 60 169 74 83
187 108 285 62z m-664 -172 c72 -50 98 -147 60 -230 -61 -135 -258 -135 -328
-1 -20 40 -21 123 0 162 52 100 177 132 268 69z m1314 17 c72 -33 105 -86 105
-166 0 -80 -33 -133 -105 -166 -78 -36 -168 -13 -221 57 -26 33 -29 46 -29
109 0 63 3 76 29 109 53 70 143 93 221 57z m-619 -415 c74 -19 162 -69 217
-122 107 -102 157 -220 157 -370 0 -89 -16 -126 -73 -168 -28 -20 -40 -21
-420 -24 -392 -2 -392 -2 -432 21 -54 31 -85 87 -85 158 0 148 46 263 148 366
106 108 207 151 357 152 44 1 103 -5 131 -13z m-724 -17 c29 -6 73 -22 98 -35
78 -40 77 -38 43 -81 -42 -54 -79 -121 -94 -170 l-12 -43 -242 0 -242 0 7 39
c16 91 93 198 175 246 46 27 134 53 182 54 18 1 56 -4 85 -10z m1424 -28 c108
-50 187 -148 213 -261 l9 -40 -245 0 -245 0 -6 23 c-9 36 -80 169 -104 194
-18 19 -19 25 -8 38 18 21 100 63 147 75 66 16 168 4 239 -29z"/>
</g>
</svg>
